<svg viewBox="0 0 90.669395 19.657715">
  <defs
     id="defs2" />
  <g
     id="layer1"
     transform="translate(-41.356961,-45.110788)">
    <g
       aria-label="markee"
       id="text3620"
      >
      <path
         d="m 52.258621,53.184714 q 0.855762,-1.537891 2.046387,-2.269629 1.190625,-0.731738 2.802929,-0.731738 2.17041,0 3.348633,1.525488 1.178223,1.513086 1.178223,4.316016 v 8.383984 h -2.294434 v -8.30957 q 0,-1.996778 -0.706933,-2.96416 -0.706934,-0.967383 -2.158008,-0.967383 -1.773535,0 -2.80293,1.178222 -1.029394,1.178223 -1.029394,3.212207 v 7.850684 H 50.34866 v -8.30957 q 0,-2.00918 -0.706933,-2.96416 -0.706934,-0.967383 -2.182813,-0.967383 -1.74873,0 -2.778125,1.190625 -1.029394,1.178222 -1.029394,3.199804 v 7.850684 H 41.356961 V 50.51821 h 2.294434 v 2.158008 q 0.781347,-1.277442 1.872753,-1.885156 1.091407,-0.607715 2.59209,-0.607715 1.513086,0 2.567285,0.768945 1.066602,0.768945 1.575098,2.232422 z"
         id="path176829" />
      <path
         d="m 87.702867,52.651413 q -0.384473,-0.223242 -0.843359,-0.322461 -0.446485,-0.111621 -0.992188,-0.111621 -1.934765,0 -2.976562,1.265039 -1.029395,1.252637 -1.029395,3.609082 v 7.317383 H 79.56693 V 50.51821 h 2.294433 v 2.158008 q 0.719336,-1.265039 1.872754,-1.872754 1.153418,-0.620117 2.80293,-0.620117 0.235644,0 0.520898,0.03721 0.285254,0.02481 0.63252,0.08682 z"
         id="path176823" />
      <path
         d="m 90.492566,45.110788 h 2.294433 v 11.397754 l 6.808887,-5.990332 h 2.914554 l -7.366995,6.498828 7.677055,7.391797 h -2.976567 l -7.056934,-6.784082 v 6.784082 h -2.294433 z"
         id="path176820" />
      <path
         d="m 116.88393,56.893015 v 1.116211 h -10.49239 q 0.14883,2.356445 1.41387,3.596679 1.27744,1.227832 3.54707,1.227832 1.31465,0 2.54248,-0.322461 1.24024,-0.322461 2.45567,-0.967383 v 2.158008 q -1.22784,0.520899 -2.51768,0.79375 -1.28984,0.272852 -2.61689,0.272852 -3.32383,0 -5.271,-1.934766 -1.93477,-1.934765 -1.93477,-5.233789 0,-3.410644 1.83555,-5.407422 1.84795,-2.009179 4.97334,-2.009179 2.80293,0 4.42764,1.810742 1.63711,1.79834 1.63711,4.898926 z m -2.28203,-0.669727 q -0.0248,-1.872754 -1.0542,-2.988965 -1.017,-1.116211 -2.70371,-1.116211 -1.90997,0 -3.06338,1.079004 -1.14102,1.079004 -1.31465,3.038574 z"
         id="path176817" />
      <path
         d="m 132.02636,56.893015 v 1.116211 h -10.49238 q 0.14883,2.356445 1.41387,3.596679 1.27744,1.227832 3.54707,1.227832 1.31465,0 2.54248,-0.322461 1.24023,-0.322461 2.45566,-0.967383 v 2.158008 q -1.22783,0.520899 -2.51767,0.79375 -1.28985,0.272852 -2.6169,0.272852 -3.32383,0 -5.27099,-1.934766 -1.93477,-1.934765 -1.93477,-5.233789 0,-3.410644 1.83555,-5.407422 1.84795,-2.009179 4.97334,-2.009179 2.80293,0 4.42763,1.810742 1.63711,1.79834 1.63711,4.898926 z m -2.28203,-0.669727 q -0.0248,-1.872754 -1.0542,-2.988965 -1.01699,-1.116211 -2.70371,-1.116211 -1.90996,0 -3.06338,1.079004 -1.14101,1.079004 -1.31464,3.038574 z"
         id="path176814" />
    </g>
    <path
       style="fill: currentColor;"
       d="m 74.313551,50.749573 h -7.70695 a 1.5413908,1.5413908 0 0 0 -1.541396,1.541392 v 12.331127 l 5.39486,-3.853477 5.394883,3.853477 V 52.290965 a 1.5413908,1.5413908 0 0 0 -1.541397,-1.541392 z"
       id="path176811" />
  </g>
</svg>
