<?xml version="1.0" encoding="UTF-8" standalone="no"?>
<!-- Created with Inkscape (http://www.inkscape.org/) -->

<svg
   width="90.669395mm"
   height="19.657715mm"
   viewBox="0 0 90.669395 19.657715"
   version="1.1"
   id="svg5"
   inkscape:export-filename="/home/henri/Projects/markee/public/markee.svg"
   inkscape:export-xdpi="93.424301"
   inkscape:export-ydpi="93.424301"
   inkscape:version="1.1.2 (0a00cf5339, 2022-02-04)"
   sodipodi:docname="markee-logo.svg"
   xmlns:inkscape="http://www.inkscape.org/namespaces/inkscape"
   xmlns:sodipodi="http://sodipodi.sourceforge.net/DTD/sodipodi-0.dtd"
   xmlns="http://www.w3.org/2000/svg"
   xmlns:svg="http://www.w3.org/2000/svg">
  <sodipodi:namedview
     id="namedview7"
     pagecolor="#ffffff"
     bordercolor="#666666"
     borderopacity="1.0"
     inkscape:pageshadow="2"
     inkscape:pageopacity="0.0"
     inkscape:pagecheckerboard="0"
     inkscape:document-units="mm"
     showgrid="false"
     fit-margin-top="0"
     fit-margin-left="0"
     fit-margin-right="0"
     fit-margin-bottom="0"
     inkscape:zoom="1.302427"
     inkscape:cx="114.0179"
     inkscape:cy="87.144996"
     inkscape:window-width="3440"
     inkscape:window-height="1401"
     inkscape:window-x="0"
     inkscape:window-y="0"
     inkscape:window-maximized="1"
     inkscape:current-layer="layer1" />
  <defs
     id="defs2" />
  <g
     inkscape:label="Layer 1"
     inkscape:groupmode="layer"
     id="layer1"
     transform="translate(-41.356961,-45.110788)">
    <g
       aria-label="markee"
       id="text3620"
       style="font-size:25.4px;line-height:1.25;font-family:Arial;-inkscape-font-specification:Arial;letter-spacing:1.77271px;stroke-width:0.264583">
      <path
         d="m 52.258621,53.184714 q 0.855762,-1.537891 2.046387,-2.269629 1.190625,-0.731738 2.802929,-0.731738 2.17041,0 3.348633,1.525488 1.178223,1.513086 1.178223,4.316016 v 8.383984 h -2.294434 v -8.30957 q 0,-1.996778 -0.706933,-2.96416 -0.706934,-0.967383 -2.158008,-0.967383 -1.773535,0 -2.80293,1.178222 -1.029394,1.178223 -1.029394,3.212207 v 7.850684 H 50.34866 v -8.30957 q 0,-2.00918 -0.706933,-2.96416 -0.706934,-0.967383 -2.182813,-0.967383 -1.74873,0 -2.778125,1.190625 -1.029394,1.178222 -1.029394,3.199804 v 7.850684 H 41.356961 V 50.51821 h 2.294434 v 2.158008 q 0.781347,-1.277442 1.872753,-1.885156 1.091407,-0.607715 2.59209,-0.607715 1.513086,0 2.567285,0.768945 1.066602,0.768945 1.575098,2.232422 z"
         style="font-family:Kalimati;-inkscape-font-specification:Kalimati"
         id="path176675" />
      <path
         d="m 70.86131,57.426315 q -2.765722,0 -3.832324,0.63252 -1.066601,0.632519 -1.066601,2.158008 0,1.215429 0.79375,1.934765 0.806152,0.706934 2.182812,0.706934 1.897559,0 3.038574,-1.339453 1.153418,-1.351856 1.153418,-3.584277 v -0.508497 z m 4.551661,-0.942578 v 7.925098 h -2.282032 v -2.108399 q -0.781347,1.265039 -1.947168,1.872754 -1.16582,0.595313 -2.852539,0.595313 -2.133203,0 -3.398242,-1.190625 -1.252636,-1.203027 -1.252636,-3.212207 0,-2.344043 1.562695,-3.534668 1.575097,-1.190625 4.688086,-1.190625 h 3.199804 v -0.223242 q 0,-1.575098 -1.041797,-2.43086 -1.029394,-0.868164 -2.902148,-0.868164 -1.190625,0 -2.319238,0.285254 -1.128613,0.285254 -2.17041,0.855762 V 51.15073 q 1.252636,-0.483692 2.430859,-0.719336 1.178223,-0.248047 2.294434,-0.248047 3.013769,0 4.50205,1.562695 1.488282,1.562695 1.488282,4.737695 z"
         style="font-family:Kalimati;-inkscape-font-specification:Kalimati;fill-opacity:0"
         id="path176677" />
      <path
         d="m 87.702867,52.651413 q -0.384473,-0.223242 -0.843359,-0.322461 -0.446485,-0.111621 -0.992188,-0.111621 -1.934765,0 -2.976562,1.265039 -1.029395,1.252637 -1.029395,3.609082 v 7.317383 H 79.56693 V 50.51821 h 2.294433 v 2.158008 q 0.719336,-1.265039 1.872754,-1.872754 1.153418,-0.620117 2.80293,-0.620117 0.235644,0 0.520898,0.03721 0.285254,0.02481 0.63252,0.08682 z"
         style="font-family:Kalimati;-inkscape-font-specification:Kalimati"
         id="path176679" />
      <path
         d="m 90.492566,45.110788 h 2.294433 v 11.397754 l 6.808887,-5.990332 h 2.914554 l -7.366995,6.498828 7.677055,7.391797 h -2.976567 l -7.056934,-6.784082 v 6.784082 h -2.294433 z"
         style="font-family:Kalimati;-inkscape-font-specification:Kalimati"
         id="path176681" />
      <path
         d="m 116.88393,56.893015 v 1.116211 h -10.49239 q 0.14883,2.356445 1.41387,3.596679 1.27744,1.227832 3.54707,1.227832 1.31465,0 2.54248,-0.322461 1.24024,-0.322461 2.45567,-0.967383 v 2.158008 q -1.22784,0.520899 -2.51768,0.79375 -1.28984,0.272852 -2.61689,0.272852 -3.32383,0 -5.271,-1.934766 -1.93477,-1.934765 -1.93477,-5.233789 0,-3.410644 1.83555,-5.407422 1.84795,-2.009179 4.97334,-2.009179 2.80293,0 4.42764,1.810742 1.63711,1.79834 1.63711,4.898926 z m -2.28203,-0.669727 q -0.0248,-1.872754 -1.0542,-2.988965 -1.017,-1.116211 -2.70371,-1.116211 -1.90997,0 -3.06338,1.079004 -1.14102,1.079004 -1.31465,3.038574 z"
         style="font-family:Kalimati;-inkscape-font-specification:Kalimati"
         id="path176683" />
      <path
         d="m 132.02636,56.893015 v 1.116211 h -10.49238 q 0.14883,2.356445 1.41387,3.596679 1.27744,1.227832 3.54707,1.227832 1.31465,0 2.54248,-0.322461 1.24023,-0.322461 2.45566,-0.967383 v 2.158008 q -1.22783,0.520899 -2.51767,0.79375 -1.28985,0.272852 -2.6169,0.272852 -3.32383,0 -5.27099,-1.934766 -1.93477,-1.934765 -1.93477,-5.233789 0,-3.410644 1.83555,-5.407422 1.84795,-2.009179 4.97334,-2.009179 2.80293,0 4.42763,1.810742 1.63711,1.79834 1.63711,4.898926 z m -2.28203,-0.669727 q -0.0248,-1.872754 -1.0542,-2.988965 -1.01699,-1.116211 -2.70371,-1.116211 -1.90996,0 -3.06338,1.079004 -1.14101,1.079004 -1.31464,3.038574 z"
         style="font-family:Kalimati;-inkscape-font-specification:Kalimati"
         id="path176685" />
    </g>
    <path
       d="m 74.313551,50.749573 h -7.70695 a 1.5413908,1.5413908 0 0 0 -1.541396,1.541392 v 12.331127 l 5.39486,-3.853477 5.394883,3.853477 V 52.290965 a 1.5413908,1.5413908 0 0 0 -1.541397,-1.541392 z"
       id="path128452"
       style="stroke-width:0.770694" />
  </g>
</svg>
